REM DIRINDEX 1\2,1\3,1\4,1\5
REM DIRNAME folder01,folder02,folder03,folder04,folder05
TITLE ""
FILE "P1Q_t_1090-1099.mp3" MP3
  TRACK 01 AUDIO
    TITLE "3:cjc005_4176"
    INDEX 01 00:00:00
  TRACK 02 AUDIO
    TITLE "0:"
    INDEX 01 00:01:09
  TRACK 03 AUDIO
    TITLE "4:cjc005_4177"
    INDEX 01 00:01:32
  TRACK 04 AUDIO
    TITLE "0:"
    INDEX 01 00:02:69
  TRACK 05 AUDIO
    TITLE "5:cjc005_4178"
    INDEX 01 00:03:12
  TRACK 06 AUDIO
    TITLE "0:"
    INDEX 01 00:07:27
  TRACK 07 AUDIO
    TITLE "3:cjc005_4179"
    INDEX 01 00:08:03
  TRACK 08 AUDIO
    TITLE "0:"
    INDEX 01 00:09:18
  TRACK 09 AUDIO
    TITLE "4:cjc005_4180"
    INDEX 01 00:09:42
  TRACK 10 AUDIO
    TITLE "0:"
    INDEX 01 00:10:51
  TRACK 11 AUDIO
    TITLE "5:cjc005_4181"
    INDEX 01 00:10:74
  TRACK 12 AUDIO
    TITLE "0:"
    INDEX 01 00:15:07
  TRACK 13 AUDIO
    TITLE "3:cjc005_4182"
    INDEX 01 00:15:60
  TRACK 14 AUDIO
    TITLE "0:"
    INDEX 01 00:16:67
  TRACK 15 AUDIO
    TITLE "4:cjc005_4183"
    INDEX 01 00:17:18
  TRACK 16 AUDIO
    TITLE "0:"
    INDEX 01 00:18:70
  TRACK 17 AUDIO
    TITLE "5:cjc005_4184"
    INDEX 01 00:19:13
  TRACK 18 AUDIO
    TITLE "0:"
    INDEX 01 00:22:72
  TRACK 19 AUDIO
    TITLE "3:cjc005_4185"
    INDEX 01 00:23:51
  TRACK 20 AUDIO
    TITLE "0:"
    INDEX 01 00:24:57
  TRACK 21 AUDIO
    TITLE "4:cjc005_4186"
    INDEX 01 00:25:07
  TRACK 22 AUDIO
    TITLE "0:"
    INDEX 01 00:26:38
  TRACK 23 AUDIO
    TITLE "5:cjc005_4187"
    INDEX 01 00:26:58
  TRACK 24 AUDIO
    TITLE "0:"
    INDEX 01 00:30:40
  TRACK 25 AUDIO
    TITLE "3:cjc005_4188"
    INDEX 01 00:31:10
  TRACK 26 AUDIO
    TITLE "0:"
    INDEX 01 00:32:31
  TRACK 27 AUDIO
    TITLE "4:cjc005_4189"
    INDEX 01 00:32:56
  TRACK 28 AUDIO
    TITLE "0:"
    INDEX 01 00:34:32
  TRACK 29 AUDIO
    TITLE "5:cjc005_4190"
    INDEX 01 00:34:59
  TRACK 30 AUDIO
    TITLE "0:"
    INDEX 01 00:38:51
  TRACK 31 AUDIO
    TITLE "3:cjc005_4191"
    INDEX 01 00:39:25
  TRACK 32 AUDIO
    TITLE "0:"
    INDEX 01 00:40:48
  TRACK 33 AUDIO
    TITLE "4:cjc005_4192"
    INDEX 01 00:40:73
  TRACK 34 AUDIO
    TITLE "0:"
    INDEX 01 00:42:27
  TRACK 35 AUDIO
    TITLE "5:cjc005_4193"
    INDEX 01 00:42:45
  TRACK 36 AUDIO
    TITLE "0:"
    INDEX 01 00:47:19
  TRACK 37 AUDIO
    TITLE "3:cjc005_4194"
    INDEX 01 00:47:70
  TRACK 38 AUDIO
    TITLE "0:"
    INDEX 01 00:49:16
  TRACK 39 AUDIO
    TITLE "4:cjc005_4195"
    INDEX 01 00:49:47
  TRACK 40 AUDIO
    TITLE "0:"
    INDEX 01 00:50:42
  TRACK 41 AUDIO
    TITLE "5:cjc005_4196"
    INDEX 01 00:50:62
  TRACK 42 AUDIO
    TITLE "0:"
    INDEX 01 00:55:42
  TRACK 43 AUDIO
    TITLE "3:cjc005_4197"
    INDEX 01 00:56:16
  TRACK 44 AUDIO
    TITLE "0:"
    INDEX 01 00:57:17
  TRACK 45 AUDIO
    TITLE "4:cjc005_4198"
    INDEX 01 00:57:39
  TRACK 46 AUDIO
    TITLE "0:"
    INDEX 01 00:58:58
  TRACK 47 AUDIO
    TITLE "5:cjc005_4199"
    INDEX 01 00:59:08
  TRACK 48 AUDIO
    TITLE "0:"
    INDEX 01 01:03:10
  TRACK 49 AUDIO
    TITLE "3:cjc005_4200"
    INDEX 01 01:03:69
  TRACK 50 AUDIO
    TITLE "0:"
    INDEX 01 01:04:74
  TRACK 51 AUDIO
    TITLE "4:cjc005_4201"
    INDEX 01 01:05:24
  TRACK 52 AUDIO
    TITLE "0:"
    INDEX 01 01:06:63
  TRACK 53 AUDIO
    TITLE "5:cjc005_4202"
    INDEX 01 01:07:10
  TRACK 54 AUDIO
    TITLE "0:"
    INDEX 01 01:10:49
  TRACK 55 AUDIO
    TITLE "3:cjc005_4203"
    INDEX 01 01:11:25
  TRACK 56 AUDIO
    TITLE "0:"
    INDEX 01 01:12:32
  TRACK 57 AUDIO
    TITLE "4:cjc005_4204"
    INDEX 01 01:12:58
  TRACK 58 AUDIO
    TITLE "0:"
    INDEX 01 01:14:23
  TRACK 59 AUDIO
    TITLE "5:cjc005_4205"
    INDEX 01 01:14:47
  TRACK 60 AUDIO
    TITLE "0:"
    INDEX 01 01:18:64
